<?xml version="1.0" encoding="utf-8"?>
<!-- Generator: Adobe Illustrator 17.0.0, SVG Export Plug-In . SVG Version: 6.00 Build 0)  -->
<!DOCTYPE svg PUBLIC "-//W3C//DTD SVG 1.1//EN" "http://www.w3.org/Graphics/SVG/1.1/DTD/svg11.dtd">
<svg version="1.1" id="Layer_1" xmlns="http://www.w3.org/2000/svg" xmlns:xlink="http://www.w3.org/1999/xlink" x="0px" y="0px"
	 width="666px" height="554px" viewBox="0 0 666 554" enable-background="new 0 0 666 554" xml:space="preserve">
<g>
	<path d="M347.575,428.598c-9.582-9.067-11.195-14.204-6.231-19.222c5.134-5.191,16.149-5.325,21.018-0.256
		c4.378,4.558,2.787,8.235-8.974,19.884c5.856,2.223,11.289,4.594,16.912,6.363c20.555,6.466,41.437,11.312,63.132,11.61
		c2.312,0.032,4.673-0.182,6.937-0.644c8.162-1.667,11.385-5.192,10.83-13.487c-0.866-12.952-2.169-25.889-3.743-38.777
		c-4.272-34.996-18.98-66.396-34.104-97.628c-5.952-12.291-12.099-24.492-17.838-36.881c-4.22-9.11-3.421-12.464,4.996-18.135
		c10.888-7.337,22.187-14.065,33.781-21.353c-3.025-3.61-6.167-7.361-9.309-11.111c1.718,6.512-1.947,10.265-6.416,13.467
		c-6.358,4.556-12.664,9.236-19.355,13.26c-6.315,3.798-9.132,1.967-12.09-4.8c-4.173-9.551-8.181-19.414-14.01-27.948
		c-9.726-14.238-20.859-27.514-31.347-41.235c-1.81-2.368-3.357-4.937-5.087-7.504c-2.899,1.641-5.645,3.195-8.391,4.749
		c-0.45-0.322-0.9-0.645-1.35-0.967c0.565-2.749,1.129-5.498,1.77-8.62c-4.43,1.586-5.688-1.15-6.233-4.575
		c-0.259-1.627-0.684-3.513-0.136-4.936c2.752-7.138-1.368-12.473-4.148-18.316c-1.725-3.625-3.091-7.579-3.718-11.528
		c-0.746-4.7,5.109-8.696,9.766-6.236c4.58,2.419,8.582,6.106,12.433,9.673c2.64,2.445,4.587,5.638,7.239,8.997
		c4.729-6.324,9.246-12.364,14.213-19.005c-6.937-0.658-12.143,1.608-17.415,4.033c-1.893,0.871-5.448,1.583-6.222,0.665
		c-1.337-1.587-1.877-4.735-1.274-6.796c0.514-1.758,3.141-4.152,4.77-4.104c5.761,0.168,11.593,0.844,17.203,2.16
		c3.568,0.836,5.706,0.707,7.907-2.561c7.954-11.809,16.185-23.431,24.355-35.093c1.432-2.044,3.084-3.932,4.616-5.907
		c2.621-3.38,5.609-6.044,10.134-3.537c3.153,1.747,4.226,7.796,1.839,11.779c-2.298,3.834-5.077,7.42-7.947,10.863
		c-7.886,9.459-15.93,18.785-24.134,28.425c2.936,2.343,5.784,4.088,7.965,6.449c8.782,9.509,13.933,20.679,14.013,33.785
		c0.077,12.539,3.197,23.384,11.788,33.386c10.887,12.675,21.852,25.105,34.541,35.996c2.495,2.141,4.546,2.488,7.58,1.058
		c3.579-1.686,7.453-2.983,11.337-3.677c1.727-0.308,5.006,0.875,5.408,2.096c0.557,1.695-0.32,4.692-1.675,6.005
		c-2.452,2.376-5.71,3.919-8.875,5.967c1.553,2.589,3.34,4.983,4.48,7.652c0.953,2.232,2.26,5.264,1.467,7.106
		c-2.131,4.955,0.999,7.373,3.642,10.184c29.448,31.319,58.92,62.615,88.378,93.924c1.088,1.156,2.094,2.39,3.138,3.588
		c-0.299,0.362-0.598,0.723-0.897,1.085c-1.211-0.959-2.562-1.786-3.614-2.896c-23.841-25.15-47.669-50.314-71.451-75.519
		c-6.746-7.15-13.418-14.374-19.961-21.709c-1.828-2.05-3.318-2.454-5.966-1.46c-14.173,5.317-28.43,10.413-42.684,15.51
		c-1.787,0.639-3.731,0.836-5.603,1.238c-0.326-0.387-0.652-0.774-0.979-1.161c1.463-1.982,2.611-4.337,4.441-5.884
		c9.664-8.169,19.499-16.136,29.28-24.167c1.26-1.034,2.552-2.029,3.807-3.025c-4.678-7.043-4.759-7.178-11.171-3.36
		c-9.301,5.538-18.634,11.05-27.651,17.028c-8.307,5.507-8.951,8.054-4.697,17.051c8.468,17.914,16.986,35.812,25.881,53.516
		c18.635,37.087,27.635,76.549,29.819,117.775c0.631,11.918-4.356,17.705-16.573,18.186c-20.905,0.824-41.045-3.812-60.929-9.525
		c-7.811-2.244-15.286-5.642-22.971-8.353c-1.379-0.487-3.324-0.753-4.527-0.155c-30.93,15.363-63.862,24.971-97.186,33.161
		c-18.874,4.639-38.084,8.094-57.3,11.07c-8.076,1.251-16.67,0.678-24.829-0.477c-12.171-1.723-17.744-9.896-15.043-21.875
		c1.436-6.371,4.499-12.457,7.407-18.388c2.018-4.117,5.205-7.267,11.49-2.554c-4.777-5.824-8.522-10.175-11.995-14.733
		c-1.386-1.819-2.679-4.004-3.076-6.192c-0.365-2.011,0.533-4.25,0.874-6.389c2.108,0.561,4.997,0.441,6.187,1.804
		c4.803,5.5,9.098,11.445,13.546,17.252c1.504,1.963,2.907,4.003,4.246,5.856c7.032-3.945,13.814-7.691,20.536-11.544
		c3.834-2.198,5.154-5.887,2.676-9.309c-4.518-6.238-9.12-12.728-14.929-17.647c-9.547-8.084-15.874-17.826-19.285-29.622
		c-0.427-1.477,0.52-3.35,0.83-5.04c1.546,0.703,3.574,1.009,4.545,2.186c2.419,2.935,4.571,6.145,6.444,9.463
		c3.519,6.234,6.939,12.538,10.064,18.976c2.07,4.265,5.438,5.466,9.406,4.215c4.23-1.333,8.604-2.967,12.168-5.516
		c11.457-8.192,23.891-13.533,37.798-16.052c9.508-1.722,17.49-6.971,24.818-13.303c9.188-7.939,18.464-15.813,28.156-23.112
		c4.271-3.216,4.664-6.817,3.179-11.607c0.533-0.06,1.066-0.119,1.599-0.179c0.976,1.416,1.953,2.833,3.565,5.171
		c0.686-5.239,5.024-8.112,4.456-13.704c-0.485-4.767,3.997-5.851,8.869-6.371c-4.029-3.821-8.138-3.844-11.522-1.25
		c-6.313,4.838-12.022,10.456-18.134,15.568c-3.252,2.72-6.836,5.04-10.238,7.584c-1.283,0.959-2.429,2.101-3.719,3.05
		c-1.829,1.345-3.734,2.588-6.529,4.508c0-2.187-0.232-3.21,0.034-3.361c6.214-3.55,3.977-11.326,8.081-15.963
		c4.193-4.738,7.895-9.922,12.21-14.539c4.501-4.817,9.477-9.191,14.951-14.435c-1.524-1.512-3.83-3.468-5.682-5.787
		c-0.833-1.043-0.758-2.811-1.095-4.249c1.407,0.481,3.736,0.614,4.071,1.5c2.322,6.143,6.78,4.95,11.501,4.025
		c3.578-0.701,7.306-0.634,10.888-1.322c1.774-0.341,3.368-1.614,5.508-2.701c-4.545-2.077-8.198-4.101-12.085-5.457
		c-12.39-4.325-22.301,1.789-32.075,8.087c-2.936,1.891-5.612,4.21-8.637,5.926c-1.144,0.649-2.939,0.153-4.437,0.179
		c0.731-1.268,1.156-3.21,2.24-3.703c12.332-5.611,23.286-14.321,37.474-15.865c4.47-0.486,8.687-3.301,13.756-5.348
		c-12.41-7.503-23.833-3.758-35.41-2.279c0.441,1.788,0.807,3.272,1.522,6.172c-2.853-1.084-5.25-1.289-6.426-2.594
		c-2.13-2.366-4.021-1.94-6.073-0.538c-4.785,3.269-9.492,6.653-14.204,10.029c-1.931,1.384-3.792,2.865-5.685,4.302
		c-0.43-0.401-0.86-0.801-1.29-1.202c1.278-1.637,2.348-3.505,3.868-4.873c9.704-8.728,21.015-13.857,34.095-15.061
		c2.863-0.264,5.664-1.204,8.471-1.828c-13.232-8.905-23.533,0.094-34.567,4.101c-0.982,0.357-1.435,2.17-2.287,3.558
		c-10.014-2.277-14.947,4.931-20.142,11.814c-1.476,1.955-3.33,3.625-5.712,4.812c0.543-6.881,5.372-10.578,10.283-13.979
		c5.028-3.482,10.386-6.488,15.614-10.616c-2.293,0.12-4.721-0.206-6.853,0.442c-6.98,2.122-14.167,4.015-19.205,9.925
		c-16.947,19.878-32.043,40.907-40.63,65.931c-2.19,6.382-7.3,9.877-12.832,12.634c-7.444,3.71-15.258,6.674-22.738,10.317
		c-3.387,1.65-7.146,3.544-9.372,6.393c-9.755,12.481-22.366,21.425-35.64,29.455c-25.368,15.347-50.979,30.292-76.507,45.374
		c-0.996,0.588-2.173,0.87-3.266,1.295c-0.223-0.414-0.445-0.829-0.668-1.243c1.405-0.918,2.783-1.88,4.218-2.747
		c29.077-17.569,58.373-34.789,87.105-52.903c8.011-5.05,14.178-12.954,21.542-19.13c4.396-3.686,9.243-6.995,14.306-9.689
		c6.893-3.668,14.257-6.439,21.283-9.873c5.943-2.905,9.475-7.653,11.73-14.117c6.943-19.898,19.02-36.898,31.605-53.552
		c6.31-8.351,13.087-16.018,23.732-18.897c5.401-1.461,10.746-3.175,16.217-4.27c0.742-0.148,2.074,2.652,2.948,3.837
		c7.205-2.14,15.223-4.536,23.255-6.887c0.95-0.278,1.969-0.349,2.962-0.45c6.66-0.679,8.501,1.933,5.717,9.607
		c3.574-0.545,6.684-1.008,9.789-1.502c0.487-0.078,1.001-0.512,1.42-0.417c3.198,0.73,7.781,0.533,9.252,2.565
		c2.651,3.662-0.371,7.253-3.735,9.513c-2.407,1.617-5.196,2.665-7.782,5.045c3.389,0,6.868-0.47,10.134,0.161
		c2.269,0.438,6.162,2.764,6,3.6c-0.536,2.762-1.982,6.278-4.201,7.556c-2.976,1.714-7.044,1.437-10.561,2.336
		c-3.811,0.974-9.139-1.359-10.596,5.254c-0.344,1.56-4.169,2.06-5.674,3.705c-7.959,8.704-15.773,17.546-23.402,26.541
		c-1.059,1.249-0.813,3.606-1.171,5.449c0.488,0.393,0.976,0.787,1.464,1.18c2.972-2.115,6.13-4.014,8.879-6.388
		c6.535-5.643,12.57-11.907,19.394-17.157c5.217-4.014,10.303-3.204,14.541,0.78c4.358,4.098,4.035,8.929-1.562,11.056
		c-5.472,2.079-8.365,5.381-10.814,10.605c-1.701,3.63-6.122,6.043-9.463,8.837c-8.803,7.364-17.873,14.422-26.475,22.011
		c-8.957,7.903-18.894,13.643-30.697,15.763c-10.85,1.949-20.656,6.103-29.679,12.458c-6.247,4.4-12.607,8.895-21.863,8.699
		c2.407,3.033,4.328,5.386,6.177,7.794c7.611,9.915,6.414,15.049-4.548,20.811c-5.208,2.738-10.219,5.851-15.638,8.977
		c2.519,3.096,4.23,5.199,5.942,7.302c-0.241,0.393-0.482,0.787-0.723,1.18c-5.661-0.496-10.949-2.501-15.977-5.188
		c-7.26-3.879-8.157-4.072-11.685,3.439c-2.782,5.923-5.019,12.385-5.938,18.829c-1.111,7.791,3.087,12.639,10.967,14.955
		c10.506,3.088,21.207,2.245,31.735,0.642c47.616-7.253,93.641-20.323,138.179-38.638c3.074-1.264,6.014-2.859,9.001-4.331
		C346.546,429.527,346.888,429.144,347.575,428.598z M321.664,125.703c2.148,2.603,3.737,4.356,5.131,6.252
		c3.315,4.512,6.87,8.895,9.71,13.696c3.172,5.361,4.963,11.632,8.582,16.616c9.649,13.286,20.582,25.67,29.779,39.243
		c5.985,8.833,10.043,19.02,14.537,28.797c2.468,5.371,3.735,6.451,8.891,3.215c7.037-4.417,13.839-9.246,20.469-14.258
		c4.677-3.536,5.074-6.753,1.693-11.67c-3.108-4.521-6.52-8.863-10.094-13.029c-11.937-13.912-19.76-29.863-24.67-47.461
		c-3.078-11.032-6.89-21.859-10.39-32.772c-1.666-5.195-5.305-8.103-10.459-9.759c-2.872-0.923-4.549-0.624-6.272,1.905
		c-3.091,4.537-6.245,9.079-9.853,13.199c-2.801,3.198-1.726,5.339,0.848,7.537c3.182,2.717,5.003,0.078,6.329-2.117
		c2.491-4.12,4.384-8.6,6.873-12.721c1.295-2.145,3.331-3.843,5.032-5.742c0.661,0.437,1.322,0.875,1.983,1.312
		c-1.049,2.391-1.802,4.975-3.211,7.131c-2.723,4.167-5.925,8.019-8.726,12.139c-3.183,4.683-6.927,5.518-11.182,1.622
		c-2.916-2.669-5.185-6.041-7.765-9.08c-2.943-3.466-5.911-6.911-8.319-9.723c-4.143,3.169-7.598,5.811-11.074,8.469
		c1.962,4.176,2.004,4.196,6.074,2.861c0.631-0.207,1.288-0.612,1.897-0.554c1.136,0.109,2.246,0.491,3.367,0.759
		c-0.727,0.983-1.255,2.434-2.225,2.844C326.998,125.101,325.097,125.123,321.664,125.703z M443.214,230.081
		c-11.963,9.761-23.474,19.155-34.986,28.548c0.25,0.329,0.501,0.658,0.751,0.988c15.025-5.455,30.05-10.911,45.637-16.57
		C450.933,238.859,447.467,234.917,443.214,230.081z M380.402,90.067c7.492-9.028,14.761-17.787,21.912-26.405
		c-3.568-2.126-6.286-3.746-9.552-5.692c-6.348,9.18-12.727,18.405-19.156,27.701C376.306,87.418,378.075,88.562,380.402,90.067z
		 M352.846,406.56c-5.856,1.191-10.424,3.46-11.523,6.853c-1.556,4.803,1.426,7.83,4.645,10.598
		c4.453,3.83,5.862,3.584,11.864-2.176c2.645-2.538,6.065-5.678,3.782-9.285C359.876,409.803,355.853,408.503,352.846,406.56z
		 M160.963,406.585c-1.084,8.543,11.62,23.699,20.28,24.679C174.647,422.405,169.916,412.792,160.963,406.585z M391.037,156.522
		c-0.249-15.145-2.733-29.855-12.575-42.247C382.654,128.357,386.846,142.439,391.037,156.522z M175.751,358.769
		c-0.701,0.328-1.402,0.656-2.102,0.985c3.132,10.402,7.976,19.784,16.297,27.091c0.387-0.226,0.773-0.451,1.16-0.677
		C185.987,377.035,180.869,367.902,175.751,358.769z M379.5,90.386c-3.328-0.154-6.635-1.308-7.919-0.173
		c-3.353,2.963-5.822,6.927-9.653,11.768c3.851,0,7.153,0.999,8.496-0.199C373.654,98.901,375.967,94.99,379.5,90.386z
		 M440.841,216.903c-8.379-7.947-16.565-15.711-24.751-23.475c5.958,8.27,12.512,15.999,18.921,23.847
		C437.314,220.094,438.86,218.362,440.841,216.903z M463.271,213.841c-4.642-2.026-10.634-0.561-17.218,4.328
		c2.654,1.348,5.493,4.005,7.2,3.411C457.131,220.228,461.612,218.62,463.271,213.841z M457.521,241.125
		c1.539-6.779-2.52-10.856-6.048-15.555c-2.176,1.363-3.898,2.442-5.956,3.731c3.743,4.118,6.961,7.684,10.225,11.208
		C456.015,240.804,456.593,240.818,457.521,241.125z M350.087,101.067c0.023-0.321,0.045-0.642,0.068-0.963
		c-3.106-0.374-6.208-1.021-9.318-1.063c-5.496-0.073-6.794,2.121-4.716,7.915C340.784,104.99,345.436,103.029,350.087,101.067z
		 M326.622,106.874c-3.644-1.398-6.986-2.781-9.351,1.133c-0.605,1.001,0.184,4.15,1.092,4.539
		C322.956,114.515,324.803,111.182,326.622,106.874z M439.19,221.383c4.466,6.844,4.765,6.913,9.888,2.301
		C444.41,217.938,443.781,217.791,439.19,221.383z M325.229,148.141c5.604-5.026,5.423-8.516,0-12.779
		C325.229,139.555,325.229,143.291,325.229,148.141z M398.627,52.737c-1.277,1.69-2.686,3.223-2.531,3.402
		c1.227,1.419,2.752,2.58,4.186,3.82c0.693-0.931,2.159-2.193,1.929-2.73C401.598,55.794,400.257,54.67,398.627,52.737z
		 M328.273,310.098c-5.652-1.136-7.237,0.25-6.178,5.303C324.207,313.588,325.99,312.058,328.273,310.098z"/>
</g>
</svg>
